<?xml version="1.0" encoding="utf-8"?>
<!-- Generator: Adobe Illustrator 18.1.1, SVG Export Plug-In . SVG Version: 6.00 Build 0)  -->
<svg version="1.1" id="Layer_1" xmlns="http://www.w3.org/2000/svg" xmlns:xlink="http://www.w3.org/1999/xlink" x="0px" y="0px"
	 width="884.2px" height="532px" viewBox="144 154.9 884.2 532" enable-background="new 144 154.9 884.2 532" xml:space="preserve">
<rect x="144" y="154.9" fill="#1A1A1A" width="884.2" height="532"/>
<g>
	<path fill="#E6E6E6" d="M379.5,392.4c-2.8,0-7.6-0.6-7.6,3.8c0,2.2,1.7,3.1,3.6,3.9l33.6,15.3c8.7,3.9,13.2,9.4,13.2,19
		c0,13.6-9.2,20-22.1,20h-20.7c-7,0-11.8-0.3-16.8-4.2c-2.5-2-6.2-4.5-6.2-7.8c0-3.8,3.2-6.7,7-6.7c2.1,0,3.6,0.7,5.2,2.4
		c2.4,2.7,6.6,2.9,10.8,2.9h18.2c4.8,0,11.2,0.4,11.2-7.4c0-3.2-3.9-5.3-7-6.7l-31.6-14.4c-7.4-3.4-11.8-7.7-11.8-16.4
		c0-10.6,8.4-17.1,18.5-17.1h23c7.4,0,10.5,0.4,15.5,4.6c2.5,2.1,5.3,3.8,5.3,7.6c0,3.8-3.2,6.7-6.9,6.7c-2.5,0-4.1-1-5.7-2.8
		c-2.2-2.4-4.6-2.7-8.3-2.7L379.5,392.4L379.5,392.4z"/>
	<path fill="#E6E6E6" d="M494.9,392.4c-1.4,0-2.8,0.4-4.2,1.3l-19.9,12.5v39.1c0,4.6-1,9.2-6.7,9.2s-6.7-4.6-6.7-9.2v-84.7
		c0-4.6,1-9.2,6.7-9.2s6.7,4.6,6.7,9.2v30.1l10.9-7.1c3.5-2.2,7.6-4.5,12-4.5h9c2.7,0,7.4,0,13,4.9c6,5.2,5.7,10.9,6,18.2l1.4,42.3
		c0.1,4.8-0.6,10.1-6.6,10.1c-5.5,0-6.6-4.6-6.7-9.1l-1.4-41.4c-0.3-6.4,0.1-11.5-7.4-11.5h-6.1V392.4z"/>
	<path fill="#C7FF00" d="M567,405.2c-2.2,2.7-3.9,4.6-8.3,4.6c-3.9,0-7.3-2.7-7.3-6c0-2.4,1.5-4.5,2.9-6.6l27.8-43.4
		c2-3.4,3.7-6.4,9-6.4c5.5,0,7,3.1,9.2,6.4l27.8,43.4c1.4,2.1,2.7,4.2,2.7,6.6c0,3.4-3.4,6-7.3,6c-4.3,0-6-2-8.2-4.6l-24.2-37
		L567,405.2z"/>
	<path fill="#E6E6E6" d="M659,388.9c0-4.9,0.6-9.9,6.7-9.9c5.3,0,6.7,4.5,6.7,9v5.5l10.5-8.7c3.8-3.1,7.7-5.7,11.9-5.7h10.8
		c5.2,0,9.5,1.7,13.2,5.3c4.5,4.5,6,9.1,6,15.3c0,4.6-0.8,9.4-6.6,9.4c-4.9,0-6.9-3.9-6.9-8.3c0-2.2,0-3.9-1.4-5.9
		c-1.7-2.4-4.9-2.4-8.1-2.4h-3.9c-2.5,0-4.3,1.3-6.7,3.2l-18.8,15.5v34c0,4.6-1,9.2-6.7,9.2s-6.7-4.6-6.7-9.2V388.9z"/>
	<path fill="#E6E6E6" d="M804,384.5c2.4-2.1,5.7-5.5,9-5.5c3.8,0,6.7,3.1,6.7,6.9c0,3.2-2.1,4.8-4.5,6.7l-26,21.6l31.6,26.3
		c2.5,2.1,4.8,3.6,4.8,7.1c0,3.8-2.9,6.9-6.7,6.9c-2.7,0-4.3-1.7-6.3-3.2l-33.7-28.1l-5.6,5v17.1c0,4.6-1,9.2-6.7,9.2
		s-6.7-4.6-6.7-9.2v-84.7c0-4.6,1-9.2,6.7-9.2s6.7,4.6,6.7,9.2v49.8L804,384.5z"/>
</g>
</svg>
